<svg width="50" height="50" viewBox="0 0 50 50" fill="none" xmlns="http://www.w3.org/2000/svg">
<rect width="50" height="50" rx="25" fill="#1F1F1F"/>
<rect x="10.4395" y="10.4395" width="29.121" height="29.121" rx="14.5605" fill="#9E77ED"/>
<path d="M20.8636 20.4492C19.9498 20.4492 19.209 21.19 19.209 22.1038V22.5175H30.7912V22.1038C30.7912 21.19 30.0504 20.4492 29.1366 20.4492H20.8636Z" fill="#F3F3F3"/>
<path fill-rule="evenodd" clip-rule="evenodd" d="M30.7912 23.7584H19.209V27.8949C19.209 28.8087 19.9498 29.5495 20.8636 29.5495H29.1366C30.0504 29.5495 30.7912 28.8087 30.7912 27.8949V23.7584ZM20.8636 25.8267C20.8636 25.5982 21.0488 25.413 21.2772 25.413H24.5864C24.8149 25.413 25.0001 25.5982 25.0001 25.8267C25.0001 26.0551 24.8149 26.2403 24.5864 26.2403H21.2772C21.0488 26.2403 20.8636 26.0551 20.8636 25.8267ZM21.2772 27.0676C21.0488 27.0676 20.8636 27.2528 20.8636 27.4813C20.8636 27.7097 21.0488 27.8949 21.2772 27.8949H22.9318C23.1603 27.8949 23.3455 27.7097 23.3455 27.4813C23.3455 27.2528 23.1603 27.0676 22.9318 27.0676H21.2772Z" fill="#F3F3F3"/>
</svg>
